<svg xmlns="http://www.w3.org/2000/svg" viewBox="0 0 28.69 17.2"><title>behance</title><g id="Слой_2" data-name="Слой 2"><g id="Слой_1-2" data-name="Слой 1"><path d="M11.74,7.48a2.85,2.85,0,0,0,2.69-3.1c0-3-2.2-4.38-5-4.38H0V17H9.44S15,17,15,11.85C15,11.85,15.28,7.48,11.74,7.48ZM4,3H9.44s1.25.12,1.25,1.87S10,7,9.12,7H4ZM9.18,14H4V9H9.44a2.31,2.31,0,0,1,1.86,2.56A2.16,2.16,0,0,1,9.18,14ZM22.51,3.88c-6.78,0-6.78,6.58-6.78,6.58s-.46,6.74,6.78,6.74c0,0,6-.2,6-4.2h-3.1s.1,1.38-2.83,1.38c0,0-3.1.62-3.1-3.38h9.13S29.65,3.88,22.51,3.88ZM25.27,9H19.48a3.08,3.08,0,0,1,3.1-2.6A2.55,2.55,0,0,1,25.27,9ZM26,1H19V3h7Z"/></g></g></svg>