<svg xmlns="http://www.w3.org/2000/svg" viewBox="0 0 28.42 17.22"><title>behance</title><g id="Слой_2" data-name="Слой 2"><g id="Слой_1-2" data-name="Слой 1"><path d="M11.47,7.7a3,3,0,0,0,2.69-3.21c0-3-2.2-4.49-5-4.49H0V16.87H9.17s5.6.17,5.6-5C14.77,11.89,15,7.7,11.47,7.7ZM4,3H9.17s1.25,0,1.25,1.75-.73,2-1.57,2H4ZM8.91,13.87H4V9.36H9.17S11,9.34,11,11.68A2,2,0,0,1,8.91,13.87ZM22.24,4.29c-6.78,0-6.78,6.48-6.78,6.48s-.46,6.45,6.78,6.45c0,0,6,.33,6-4.49h-3.1s.1,1.82-2.83,1.82a2.84,2.84,0,0,1-3.1-2.94h9.13S29.38,4.29,22.24,4.29ZM25,9.36H19.21a3.08,3.08,0,0,1,3.1-2.6A2.55,2.55,0,0,1,25,9.36ZM25.72,1H18.45V3.07h7.27Z" fill="#fff"/></g></g></svg>