<svg xmlns="http://www.w3.org/2000/svg" viewBox="0 0 21.08 22"><title>skype</title><g id="Слой_2" data-name="Слой 2"><g id="Слой_1-2" data-name="Слой 1"><path d="M20.48,13.33a10.71,10.71,0,0,0,.23-2.22A10.21,10.21,0,0,0,10.65.77,9.89,9.89,0,0,0,8.93.92,5.69,5.69,0,0,0,5.83,0,5.92,5.92,0,0,0,0,6,6.11,6.11,0,0,0,.8,9a10.71,10.71,0,0,0-.2,2.08A10.2,10.2,0,0,0,10.65,21.46a9.83,9.83,0,0,0,1.84-.17,5.68,5.68,0,0,0,2.76.71,5.92,5.92,0,0,0,5.83-6A6.1,6.1,0,0,0,20.48,13.33Zm-4.67,2.73a4.61,4.61,0,0,1-2,1.59,8,8,0,0,1-3.14.57A7.49,7.49,0,0,1,7,17.45a4.77,4.77,0,0,1-1.66-1.51,3.38,3.38,0,0,1-.64-1.87,1.32,1.32,0,0,1,.42-1,1.46,1.46,0,0,1,1-.4,1.31,1.31,0,0,1,.89.32,2.36,2.36,0,0,1,.59.89,5.29,5.29,0,0,0,.58,1.05,2.25,2.25,0,0,0,.84.67,3.4,3.4,0,0,0,1.46.27,3.47,3.47,0,0,0,2-.54A1.53,1.53,0,0,0,13.32,14a1.29,1.29,0,0,0-.39-1,2.76,2.76,0,0,0-1.07-.61c-.46-.15-1.08-.3-1.85-.47a14.62,14.62,0,0,1-2.63-.81,4.34,4.34,0,0,1-1.73-1.3A3.29,3.29,0,0,1,5,7.8a3.43,3.43,0,0,1,.68-2.09,4.28,4.28,0,0,1,2-1.39,8.33,8.33,0,0,1,3-.48,7.8,7.8,0,0,1,2.35.32A5.16,5.16,0,0,1,14.59,5a3.69,3.69,0,0,1,1,1.13,2.56,2.56,0,0,1,.32,1.18,1.43,1.43,0,0,1-.41,1,1.36,1.36,0,0,1-1,.44,1.25,1.25,0,0,1-.87-.28,3.29,3.29,0,0,1-.6-.82,3.37,3.37,0,0,0-.9-1.15,2.76,2.76,0,0,0-1.68-.4,3.07,3.07,0,0,0-1.74.44,1.19,1.19,0,0,0-.62,1,.92.92,0,0,0,.2.6,1.82,1.82,0,0,0,.6.47,4.31,4.31,0,0,0,.81.32L11,9.29a23,23,0,0,1,2.22.6A7.13,7.13,0,0,1,15,10.7a3.5,3.5,0,0,1,1.13,1.23,3.77,3.77,0,0,1,.41,1.82A4,4,0,0,1,15.81,16.06Z" fill="#fff"/></g></g></svg>