<?xml version="1.0" encoding="utf-8"?>
<!-- Generator: Adobe Illustrator 22.0.1, SVG Export Plug-In . SVG Version: 6.00 Build 0)  -->
<svg version="1.1" id="Слой_1" xmlns="http://www.w3.org/2000/svg" xmlns:xlink="http://www.w3.org/1999/xlink" x="0px" y="0px"
	 viewBox="0 0 40.8 40.8" style="enable-background:new 0 0 40.8 40.8;" xml:space="preserve">
<style type="text/css">
	.st0{fill:none;}
</style>
<path class="st0" d="M20.4,40.8L20.4,40.8C9.1,40.8,0,31.7,0,20.4l0,0C0,9.1,9.1,0,20.4,0l0,0c11.3,0,20.4,9.1,20.4,20.4l0,0
	C40.8,31.7,31.7,40.8,20.4,40.8z"/>
<title>telegram</title>
<g id="Слой_2_1_">
	<g id="Слой_1-2">
		<path d="M6.4,19.6l5.9,2.2l2.3,7.3c0.1,0.3,0.5,0.5,0.9,0.4c0.1,0,0.1-0.1,0.2-0.1l3.3-2.7c0.3-0.3,0.9-0.3,1.2,0l6,4.3
			c0.3,0.2,0.8,0.2,1-0.2c0.1-0.1,0.1-0.2,0.1-0.3l4.4-20.9c0.1-0.3-0.1-0.8-0.5-0.9c-0.2,0-0.3,0-0.4,0L6.4,18.2
			c-0.3,0.2-0.5,0.5-0.4,0.9C6.1,19.3,6.3,19.5,6.4,19.6L6.4,19.6z M14.3,20.6l11.4-7c0.1-0.1,0.3,0,0.3,0.1c0.1,0.1,0,0.2,0,0.3
			l-9.4,8.6c-0.3,0.3-0.5,0.7-0.6,1.1l-0.3,2.4c0,0.2-0.2,0.3-0.3,0.2c-0.1,0-0.2-0.1-0.2-0.2l-1.2-4.3
			C13.7,21.4,13.8,20.8,14.3,20.6L14.3,20.6z"/>
	</g>
</g>
</svg>
