<?xml version="1.0" encoding="utf-8"?>
<!-- Generator: Adobe Illustrator 22.0.1, SVG Export Plug-In . SVG Version: 6.00 Build 0)  -->
<svg version="1.1" id="Слой_1" xmlns="http://www.w3.org/2000/svg" xmlns:xlink="http://www.w3.org/1999/xlink" x="0px" y="0px"
	 viewBox="0 0 40.8 40.8" style="enable-background:new 0 0 40.8 40.8;" xml:space="preserve">
<style type="text/css">
	.st0{fill:none;}
</style>
<title>telegram</title>
<g id="Слой_2_1_">
	<g id="Слой_1-2">
		<path d="M4.6,20.5l6.8,2.5l2.6,8.4c0.1,0.4,0.6,0.6,1,0.5c0.1,0,0.1-0.1,0.2-0.1l3.8-3.1c0.4-0.3,1-0.3,1.4,0l6.9,4.9
			c0.4,0.2,0.9,0.2,1.1-0.2c0.1-0.1,0.1-0.2,0.1-0.3l5-24c0.1-0.4-0.1-0.9-0.6-1c-0.2,0-0.3,0-0.5,0L4.6,19c-0.4,0.2-0.6,0.6-0.5,1
			C4.2,20.2,4.4,20.4,4.6,20.5L4.6,20.5z M13.6,21.7l13.1-8c0.1-0.1,0.3,0,0.3,0.1c0.1,0.1,0,0.2,0,0.3L16.2,24
			c-0.4,0.3-0.6,0.8-0.7,1.3L15.1,28c0,0.2-0.2,0.3-0.4,0.2c-0.1,0-0.2-0.1-0.2-0.2l-1.4-4.9C12.9,22.6,13.1,21.9,13.6,21.7
			L13.6,21.7z"/>
	</g>
</g>
<path class="st0" d="M20.4,40.8L20.4,40.8C9.1,40.8,0,31.7,0,20.4v0C0,9.1,9.1,0,20.4,0h0c11.3,0,20.4,9.1,20.4,20.4v0
	C40.8,31.7,31.7,40.8,20.4,40.8z"/>
</svg>
