<?xml version="1.0" encoding="utf-8"?>
<!-- Generator: Adobe Illustrator 22.0.1, SVG Export Plug-In . SVG Version: 6.00 Build 0)  -->
<svg version="1.1" id="Слой_1" xmlns="http://www.w3.org/2000/svg" xmlns:xlink="http://www.w3.org/1999/xlink" x="0px" y="0px"
	 viewBox="0 0 139 139" style="enable-background:new 0 0 139 139;" xml:space="preserve">
<style type="text/css">
	.st0{opacity:0.8;fill:#0000FF;}
	.st1{fill:#FFFFFF;}
</style>
<polyline class="st0" points="0,0 139,0 139,139 "/>
<g>
	<path class="st1" d="M112.6,66.3c-0.8,0-1.5-0.3-2-0.9l-7.8-7.7c-2.6,1.8-5.8,2.8-9,2.8c-8.8,0-15.9-7.1-15.9-15.9
		S85,28.6,93.8,28.6s15.9,7.1,15.9,15.9c0,3.2-1,6.4-2.8,9l7.8,7.8c0.5,0.5,0.8,1.3,0.8,2C115.5,65,114.2,66.3,112.6,66.3z
		 M93.8,34.4c-5.6,0-10.1,4.5-10.1,10.1s4.5,10.1,10.1,10.1c5.6,0,10.1-4.5,10.1-10.1S99.4,34.4,93.8,34.4z M101,45.3
		c0,0.4-0.3,0.7-0.7,0.7h-5.1v5.1c0,0.4-0.3,0.7-0.7,0.7H93c-0.4,0-0.7-0.3-0.7-0.7V46h-5.1c-0.4,0-0.7-0.3-0.7-0.7v-1.4
		c0-0.4,0.3-0.7,0.7-0.7h5.1v-5.1c0-0.4,0.3-0.7,0.7-0.7h1.4c0.4,0,0.7,0.3,0.7,0.7v5.1h5.1c0.4,0,0.7,0.3,0.7,0.7V45.3z"/>
</g>
</svg>
