<?xml version="1.0" encoding="utf-8"?>
<!-- Generator: Adobe Illustrator 22.0.1, SVG Export Plug-In . SVG Version: 6.00 Build 0)  -->
<svg version="1.1" id="Слой_1" xmlns="http://www.w3.org/2000/svg" xmlns:xlink="http://www.w3.org/1999/xlink" x="0px" y="0px"
	 viewBox="0 0 139 139" style="enable-background:new 0 0 139 139;" xml:space="preserve">
<style type="text/css">
	.st0{opacity:0.8;fill:#F44336;enable-background:new    ;}
	.st1{fill:#FFFFFF;}
</style>
<polyline class="st0" points="0,0 139,0 139,139 "/>
<g>
	<path class="st1" d="M118.7,74.9c-1.1,0-2-0.4-2.6-1.2l-10.3-10.2c-3.4,2.4-7.7,3.7-11.9,3.7c-11.6,0-21-9.4-21-21
		s9.4-21.1,21-21.1s21,9.4,21,21c0,4.2-1.3,8.5-3.7,11.9l10.3,10.3c0.7,0.7,1.1,1.7,1.1,2.6C122.5,73.2,120.8,74.9,118.7,74.9z
		 M93.8,32.7c-7.4,0-13.3,5.9-13.3,13.3s5.9,13.3,13.3,13.3s13.3-5.9,13.3-13.3S101.2,32.7,93.8,32.7z M103.2,47.1
		c0,0.5-0.4,0.9-0.9,0.9h-6.6v6.7c0,0.5-0.4,0.9-0.9,0.9h-2c-0.5,0-0.9-0.4-0.9-0.9V48h-6.7c-0.5,0-0.9-0.4-0.9-0.9v-1.8
		c0-0.5,0.4-0.9,0.9-0.9h6.7v-6.7c0-0.5,0.4-0.9,0.9-0.9h1.8c0.5,0,0.9,0.4,0.9,0.9v6.7h6.7c0.5,0,0.9,0.4,0.9,0.9L103.2,47.1
		L103.2,47.1z"/>
</g>
</svg>
