<?xml version="1.0" encoding="utf-8"?>
<!-- Generator: Adobe Illustrator 22.0.1, SVG Export Plug-In . SVG Version: 6.00 Build 0)  -->
<svg version="1.1" id="Слой_1" xmlns="http://www.w3.org/2000/svg" xmlns:xlink="http://www.w3.org/1999/xlink" x="0px" y="0px"
	 viewBox="0 0 139 139" style="enable-background:new 0 0 139 139;" xml:space="preserve">
<style type="text/css">
	.st0{opacity:0.1;enable-background:new    ;}
	.st1{fill:#FFFFFF;}
</style>
<rect class="st0" width="139" height="139"/>
<g>
	<path class="st1" d="M101.7,106.4c-1.5,0-2.6-0.5-3.4-1.6L84.7,91.3c-4.5,3.2-10.2,4.9-15.7,4.9c-15.3,0-27.7-12.4-27.7-27.7
		S53.7,40.7,69,40.7s27.7,12.4,27.7,27.7c0,5.5-1.7,11.2-4.9,15.7l13.6,13.6c0.9,0.9,1.5,2.2,1.5,3.4
		C106.7,104.1,104.5,106.4,101.7,106.4z M68.9,50.7c-9.8,0-17.5,7.8-17.5,17.5s7.8,17.5,17.5,17.5S86.4,78,86.4,68.2
		S78.6,50.7,68.9,50.7z M81.3,69.7c0,0.7-0.5,1.2-1.2,1.2h-8.7v8.8c0,0.7-0.5,1.2-1.2,1.2h-2.6c-0.7,0-1.2-0.5-1.2-1.2v-8.8h-8.8
		c-0.7,0-1.2-0.5-1.2-1.2v-2.4c0-0.7,0.5-1.2,1.2-1.2h8.8v-8.8c0-0.7,0.5-1.2,1.2-1.2H70c0.7,0,1.2,0.5,1.2,1.2v8.8H80
		c0.7,0,1.2,0.5,1.2,1.2L81.3,69.7L81.3,69.7z"/>
</g>
</svg>
